<?xml version="1.0" encoding="utf-8"?>
<!-- Generator: Adobe Illustrator 21.1.0, SVG Export Plug-In . SVG Version: 6.00 Build 0)  -->
<svg version="1.1" id="Layer_1" xmlns="http://www.w3.org/2000/svg" xmlns:xlink="http://www.w3.org/1999/xlink" x="0px" y="0px"
	 viewBox="0 0 222 48.4" style="enable-background:new 0 0 222 48.4;" xml:space="preserve">
<g id="logotype">
	<path d="M12.3,20.5l-3-0.8c-2.1-0.6-2.7-1.2-2.7-2.5c0-1.7,1.4-2.8,3.4-2.8c1.8,0,3.5,0.5,5.7,1.9l2.3-3.5
		c-2.2-1.6-5.2-2.5-8.2-2.5c-5.2,0-8.8,3.1-8.8,7.6c0,1.4,0.4,2.7,1,3.8C3,23.1,4.5,24.1,7,24.7l2.7,0.7c2.2,0.6,3,1.6,3,3.2
		c0,1.6-1.5,2.7-4.1,2.7c-2.5,0-4.3-0.5-6.6-1.7l-2,4.1c2.5,1.4,5.6,2.2,8.4,2.2c6.1,0,10.2-3.3,10.2-8.3
		C18.6,24.2,16.4,21.6,12.3,20.5"/>
	<path d="M27.5,10.9l-8.1,24.7h5.2l1.7-5.8h7.2l1.7,5.8h5.3l-7.8-24.7H27.5z M27.5,25.7c0.5-1.6,0.9-2.8,1.3-4.6
		c0.5-1.8,1.2-4.7,1.2-4.7s0.7,3.2,1,4.4c0.5,2.4,1.3,5,1.3,5H27.5z"/>
	<path d="M56.3,12.2c-1.4-0.8-2.7-1.2-6.8-1.2H43v24.6h5v-9.1h2.7c2.7,0,3.8-0.3,4.9-0.8c2.7-1.3,4.2-3.9,4.2-7.2
		C59.9,15.7,58.6,13.5,56.3,12.2 M53.9,21.2c-0.7,1-1.3,1.3-3.3,1.3H48V15h3.2c2.1,0,3.3,1.4,3.3,3.7C54.5,19.8,54.3,20.6,53.9,21.2
		"/>
	<polygon points="84.8,20.6 77.7,20.6 77.7,11 72.8,11 72.8,35.6 77.7,35.6 77.7,24.6 84.8,24.6 84.8,35.6 89.8,35.6 89.8,11 
		84.8,11 	"/>
	<path d="M102.8,24.4c-0.3,0.8-0.9,2.8-1.1,3.4c-0.2,0.9-0.7,2.3-0.7,2.3s-0.6-1.9-0.9-3L97,17.5l-4.9,0.3l6.6,18.1l0.4,0
		c-0.4,1.1-0.4,1.1-0.9,1.9c-0.4,0.6-0.8,1.1-1.3,1.5c-0.7,0.5-1.9,0.9-2.9,1.2l1.6,3.1c1.6-0.2,3.2-0.8,4.4-1.7
		c1.3-1,2.2-2.5,3.5-6l6.6-18.4h-5L102.8,24.4z"/>
	<polygon points="143,35.6 147.8,35.6 147.8,17 143,17.8 	"/>
	<path d="M145.5,9.5c-1.6,0-3,1.3-3,2.9c0,1.6,1.3,2.9,2.9,2.9c1.6,0,2.9-1.3,2.9-2.9C148.3,10.8,147.1,9.5,145.5,9.5"/>
	<path d="M161,24.7l-2.2-0.6c-1.7-0.4-2.3-0.9-2.3-1.8c0-1.1,0.9-1.8,2.3-1.8c1.3,0,2.7,0.4,4.5,1.3l1.6-3.2
		c-1.7-0.8-3.6-1.7-6.5-1.7c-4.2,0-7,2.4-7,5.9c0,1.2,0.4,2.5,1,3.3c0.6,0.8,2.1,1.6,3.3,1.8l2.1,0.4c1.9,0.4,2.8,1,2.8,2.2
		c0,1.2-1.1,2.1-2.4,2.1c-2.1,0-4.6-1.2-6-2.1l-1.7,3.5c2.7,1.4,5.1,2.1,7.3,2.1c4.6,0,7.8-2.6,7.8-6.3c0-1.2-0.3-2.2-1-3.1
		C163.9,26,163.2,25.3,161,24.7"/>
	<path d="M184.3,24.3c0-8.5,1.8-15.2,2.7-18.2l7.2-0.3V0L183,0.5l-0.7,1.7c-0.2,0.4-3.7,9.4-3.7,22.1c0,12.7,3.6,21.7,3.7,22.1
		l0.7,1.8l11.2,0.2v-5.7l-7.2-0.1C186,39.5,184.3,32.8,184.3,24.3"/>
	<path d="M203.2,28.7c0.4-0.8,0.7-1.5,1.1-2.3c2.3-5.2,4.2-10.8,4.5-11.8l-6-0.2c-0.6,1.7-1.6,4.4-2.7,7.2c-1.1-2.8-2.1-5.6-2.6-7.3
		l-6,0.3c0.4,1.2,2,6.7,4.3,11.8c1.5,3.3,3.3,6.9,4.6,9.3l6.5-0.1C206.8,35.5,205,32.4,203.2,28.7"/>
	<path d="M218.3,2.2l-0.7-1.7L206.4,0v5.7l7.2,0.3c1,3,2.7,9.7,2.7,18.2c0,8.4-1.8,15.1-2.7,18.2l-7.2,0.1v5.7l11.2-0.2l0.7-1.8
		c0.2-0.4,3.7-9.4,3.7-22.1C222,11.6,218.4,2.6,218.3,2.2"/>
	<path d="M120.5,17c-1.7,0-2.9,0.5-3.9,1.5c0.1-0.3,0.1-1.1,0.1-1.6V9.6l-4.7,0.3c0,0.3,0,4.7,0,5v16.8c0,2.5-0.1,3-0.5,3.9h4.3
		c0.3-0.5,0.4-0.7,0.5-1.3c1,1.1,2.3,1.7,4,1.7c1.5,0,2.7-0.4,4-1.4c2.2-1.8,3.4-4.6,3.4-8.3C127.7,20.6,125,17,120.5,17
		 M121.8,30.5c-0.4,1-1.1,1.4-2.3,1.4c-1.3,0-2-0.6-2.7-1.2v-8.4c0.6-0.7,1.5-1.5,2.7-1.5s2.2,0.7,2.6,2.3c0.2,0.8,0.2,1.5,0.2,3.1
		C122.4,28.6,122.2,29.5,121.8,30.5"/>
	<path d="M137.8,17.3c-0.9,0.4-2,1.4-2.7,2.3c0-0.5-0.1-2.3-0.2-2.7l-4.5,0.9c0.2,1.1,0.4,2.5,0.4,4.3v13.5h4.7V22.8
		c0.9-1,1.8-1.5,2.9-1.5c0.5,0,0.9,0.1,1.4,0.4l1.3-4.2c-0.7-0.3-1.1-0.4-1.8-0.4C138.8,17,138.2,17.2,137.8,17.3"/>
</g>
</svg>
